# xmcd CD database file
#
# Track frame offsets:
#	150
#	9918
#	48458
#	75520
#	112037
#	126589
#	153064
#	188764
#	233238
#	271195
#
# Disc length: 3765 seconds
#
# Revision: 0
# Processed by: cddbd v1.5PL3 Copyright (c) Steve Scherf et al.
# Submitted via: CDex 1.51
#
DISCID=760eb30a
DTITLE=Marc Copland - Marc Copland and ...
DYEAR=2003
DGENRE=Jazz
TTITLE0=Old Friends 1
TTITLE1=See You Again
TTITLE2=Blue in Green
TTITLE3=Balloonman
TTITLE4=Old Friends 2
TTITLE5=Air Conditioning
TTITLE6=Spring Song
TTITLE7=Cantaloupe Island
TTITLE8=You And The Night And The Music
TTITLE9=Old Friends 3
EXTD=YEAR: 2003
EXTT0=
EXTT1=
EXTT2=
EXTT3=
EXTT4=
EXTT5=
EXTT6=
EXTT7=
EXTT8=
EXTT9=
PLAYORDER=
